<?xml version="1.0" encoding="iso-8859-1"?>
<!-- Generator: Adobe Illustrator 19.0.0, SVG Export Plug-In . SVG Version: 6.00 Build 0)  -->
<svg version="1.1" id="Layer_1" xmlns="http://www.w3.org/2000/svg" xmlns:xlink="http://www.w3.org/1999/xlink" x="0px" y="0px"
	 viewBox="0 0 297 297" style="enable-background:new 0 0 297 297;" xml:space="preserve">
<g>
	<g>
		<g>
			<g>
				<circle style="fill:#3C5768;" cx="148.5" cy="148.5" r="148.5"/>
			</g>
		</g>
	</g>
	<path style="fill:#2C444F;" d="M209.105,92.524L89.656,206.322l87.84,87.84c58.752-11.63,105.035-57.912,116.666-116.664
		L209.105,92.524z"/>
	<g>
		<circle style="fill:#86C867;" cx="148.5" cy="148.5" r="82.5"/>
	</g>
	<g>
		<circle style="fill:#6AAC4B;" cx="148.5" cy="148.5" r="57.75"/>
	</g>
	<g>
		<circle style="fill:#86C867;" cx="148.5" cy="148.5" r="24.75"/>
	</g>
	<g>
		<circle style="fill:#FFFFFF;" cx="99" cy="115.5" r="6.5"/>
	</g>
	<g>
		<circle style="fill:#FFFFFF;" cx="155" cy="171.5" r="6.5"/>
	</g>
	<g>
		<path style="fill:#17AB93;" d="M148.5,66c45.563,0,82.5,36.937,82.5,82.5h-82.5V66z"/>
	</g>
	<g>
		<path style="fill:#0F7F6A;" d="M148.5,90.75v57.75h57.75C206.25,116.605,180.394,90.75,148.5,90.75z"/>
	</g>
	<g>
		<path style="fill:#17AB93;" d="M148.5,123.75v24.75h24.75C173.25,134.831,162.169,123.75,148.5,123.75z"/>
	</g>
	<g>
		<circle style="fill:#FFFFFF;" cx="191.5" cy="78.5" r="6.5"/>
	</g>
</g>
<g>
</g>
<g>
</g>
<g>
</g>
<g>
</g>
<g>
</g>
<g>
</g>
<g>
</g>
<g>
</g>
<g>
</g>
<g>
</g>
<g>
</g>
<g>
</g>
<g>
</g>
<g>
</g>
<g>
</g>
</svg>
